<svg width="80" height="81" viewBox="0 0 80 81" fill="none" xmlns="http://www.w3.org/2000/svg">
<path fill-rule="evenodd" clip-rule="evenodd" d="M47 0.18042H33V13.3716C30.5117 14.0195 28.1602 15.0049 25.9941 16.2756L16.666 6.94629L6.76562 16.8459L16.0957 26.175C14.8242 28.3394 13.8398 30.6919 13.1914 33.1804H0V47.1804H13.1914C13.8379 49.6689 14.8242 52.0212 16.0957 54.1858L6.76562 63.5149L16.666 73.4143L25.9941 64.0852C28.1582 65.356 30.5117 66.3413 33 66.9893V80.1804H47V66.989C48.168 66.6846 49.3066 66.3059 50.4102 65.8584C51.6562 65.3528 52.8574 64.759 54.0059 64.0847L63.334 73.4143L73.2344 63.5149L63.9043 54.1853C65.1758 52.021 66.1602 49.6687 66.8086 47.1804H80V33.1804H66.8086C66.1602 30.6921 65.1758 28.3398 63.9043 26.1755L73.2344 16.8459L63.334 6.94629L54.0059 16.2759C51.8398 15.0051 49.4883 14.02 47 13.3718V0.18042ZM31.0469 38.6155C35.0996 38.6155 38.3828 35.3303 38.3828 31.2781C38.3828 27.2258 35.0996 23.9407 31.0469 23.9407C26.9941 23.9407 23.709 27.2258 23.709 31.2781C23.709 35.3303 26.9941 38.6155 31.0469 38.6155Z" fill="black"/>
</svg>
